Release Title: High School Musical 2: Extended Edition
Release Date: 17th August 2007
Blu-Ray Release Date: 11th December 2007
Film Length: 1:51:00
Tagline: They're facing their biggest challenge yet.......summer jobs
Storyline: The East High Wildcats are ready to have the time of their lives. Troy (Zac Efron) is thrilled when he's offered a job in a country club, but it's all part of Sharpay's (Ashley Tisdale) plot to lure him away from Gabriella (Vanessa Hudgens). How will it all turn out? All questions are answered on the night of the club's Talent Show.

Zac Efron  ...  Troy Bolton  
Vanessa Hudgens  ...  Gabriella Montez  
Ashley Tisdale  ...  Sharpay Evans  
Lucas Grabeel  ...  Ryan Evans  
Corbin Bleu  ...  Chad Danforth  
Monique Coleman  ...  Taylor McKessie  
Bart Johnson  ...  Jack Bolton  
Alyson Reed  ...  Ms. Darbus  
Chris Warren Jr.  ...  Zeke Baylor  
Jessica Tuck  ...  Mrs. Evans  
Robert Curtis Brown  ...  Vance Evans  
Mark L. Taylor  ...  Mr. Fulton  
Ryne Sanborn  ...  Jason Cross  
Olesya Rulin  ...  Kelsi Nielsen  
KayCee Stroh  ...  Martha Cox

Genre                            : Comedy | Drama | Family
Language                         : English
Format                           : Matroska
File size                        : 2.33 GiB
Duration                         : 1h 51mn
Overall bit rate                 : 3 011 Kbps
Movie name                       : High.School.Musical.2.Extended.Edition.2007.720p.Dual.Audio.[Eng-Hindi]~Alan
Encoded date                     : UTC 2011-03-28 13:52:04
Writing application              : mkvmerge v4.4.0 ('Die Wiederkehr') built on Oct 31 2010 21:52:48
Writing library                  : libebml v1.0.0 + libmatroska v1.0.0
Ripper                           : Alan

Video
ID                               : 1
Format                           : AVC
Format/Info                      : Advanced Video Codec
Format profile                   : High@L4.1
Format settings, CABAC           : Yes
Format settings, ReFrames        : 4 frames
Muxing mode                      : Header stripping
Codec ID                         : V_MPEG4/ISO/AVC
Duration                         : 1h 51mn
Bit rate                         : 2 369 Kbps
Width                            : 1 280 pixels
Height                           : 720 pixels
Display aspect ratio             : 16:9
Frame rate                       : 23.976 fps
Color space                      : YUV
Chroma subsampling               : 4:2:0
Bit depth                        : 8 bits
Scan type                        : Progressive
Bits/(Pixel*Frame)               : 0.107
Stream size                      : 1.79 GiB (77%)
Title                            : Alan
Writing library                  : x264 core 98 r1649 c54c47d
Encoding settings                : cabac=1 / ref=4 / deblock=1:-1:-1 / analyse=0x3:0x113

Audio #1
ID                               : 2
Format                           : AC-3
Format/Info                      : Audio Coding 3
Mode extension                   : CM (complete main)
Muxing mode                      : Header stripping
Codec ID                         : A_AC3
Duration                         : 1h 51mn
Bit rate mode                    : Constant
Bit rate                         : 448 Kbps
Channel(s)                       : 6 channels
Channel positions                : Front: L C R, Side: L R, LFE
Sampling rate                    : 48.0 KHz
Bit depth                        : 16 bits
Compression mode                 : Lossy
Stream size                      : 356 MiB (15%)
Title                            : Track 1
Language                         : English

Audio #2
ID                               : 4
Format                           : AC-3
Format/Info                      : Audio Coding 3
Mode extension                   : CM (complete main)
Muxing mode                      : Header stripping
Codec ID                         : A_AC3
Duration                         : 1h 51mn
Bit rate mode                    : Constant
Bit rate                         : 192 Kbps
Channel(s)                       : 2 channels
Channel positions                : Front: L R
Sampling rate                    : 48.0 KHz
Bit depth                        : 16 bits
Compression mode                 : Lossy
Stream size                      : 152 MiB (6%)
Title                            : Alan
Language                         : Hindi
 
http://leetleech.org/images/66708263087029167249.png 
http://leetleech.org/images/45663962693793850297.png 
http://leetleech.org/images/32843998138879412025.png 
http://leetleech.org/images/19884170773485236358.png 
http://leetleech.org/images/28663554530297505649.png 
http://leetleech.org/images/73904435052762675250.png 
http://leetleech.org/images/45351345781194275329.png